<svg fill="#FFFFFF" xmlns="http://www.w3.org/2000/svg"  viewBox="0 0 100 100" width="100px" height="100px"><path d="M 15 16 C 13.35503 16 12 17.35503 12 19 L 12 24 C 12 25.64497 13.35503 27 15 27 L 16 27 L 16 82 L 13 82 A 1.0001 1.0001 0 1 0 13 84 L 17 84 L 83 84 L 87 84 A 1.0001 1.0001 0 1 0 87 82 L 84 82 L 84 27 L 85 27 C 86.64497 27 88 25.64497 88 24 L 88 19 C 88 17.35503 86.64497 16 85 16 L 15 16 z M 15 18 L 85 18 C 85.56503 18 86 18.43497 86 19 L 86 24 C 86 24.56503 85.56503 25 85 25 L 84 25 L 83 25 L 17 25 L 15 25 C 14.43497 25 14 24.56503 14 24 L 14 19 C 14 18.43497 14.43497 18 15 18 z M 18 27 L 82 27 L 82 82 L 77 82 L 77 58.580078 A 0.50005 0.50005 0 0 0 77 58.417969 L 77 50.580078 A 0.50005 0.50005 0 0 0 77 50.417969 L 77 42.580078 A 0.50005 0.50005 0 0 0 77 42.417969 L 77 37.5 C 77 35.572833 75.427167 34 73.5 34 L 26.5 34 C 24.572833 34 23 35.572833 23 37.5 L 23 42.419922 A 0.50005 0.50005 0 0 0 23 42.582031 L 23 50.419922 A 0.50005 0.50005 0 0 0 23 50.582031 L 23 58.419922 A 0.50005 0.50005 0 0 0 23 58.582031 L 23 82 L 18 82 L 18 27 z M 26.5 35 L 73.5 35 C 74.886833 35 76 36.113167 76 37.5 L 76 42 L 35.5 42 A 0.50005 0.50005 0 1 0 35.5 43 L 76 43 L 76 50 L 24 50 L 24 43 L 32.5 43 A 0.50005 0.50005 0 1 0 32.5 42 L 24 42 L 24 37.5 C 24 36.113167 25.113167 35 26.5 35 z M 24 51 L 76 51 L 76 58 L 24 58 L 24 51 z M 47.5 54 A 0.50005 0.50005 0 1 0 47.5 55 L 52.5 55 A 0.50005 0.50005 0 1 0 52.5 54 L 47.5 54 z M 24 59 L 76 59 L 76 82 L 24 82 L 24 59 z"/></svg>